HIERARCHY
ROOT Hips
{
  OFFSET 16.003 100.059 133.167
  CHANNELS 6 Xposition Yposition Zposition Zrotation Xrotation Yrotation
  JOINT RightUpLeg
  {
    OFFSET -8.9458 -8.66707 0.101652
    CHANNELS 3 Zrotation Xrotation Yrotation
    JOINT RightLeg
    {
      OFFSET 0 -44.4227 1.3727
      CHANNELS 3 Zrotation Xrotation Yrotation
      JOINT RightFoot
      {
        OFFSET 0.253549 -42.0924 -1.46059
        CHANNELS 3 Zrotation Xrotation Yrotation
        JOINT RightToes
        {
          OFFSET 0.04 -4.41509 8.4991
          CHANNELS 3 Zrotation Xrotation Yrotation
          End Site
          {
            OFFSET -0.08 -0.137448 9.77979
          }
        }
      }
    }
  }
  JOINT Spine
  {
    OFFSET 0 11.8905 0
    CHANNELS 3 Zrotation Xrotation Yrotation
    JOINT Spine1
    {
      OFFSET 0 25.6574 0.127663
      CHANNELS 3 Zrotation Xrotation Yrotation
      JOINT HEad
      {
        OFFSET 0 8.73416 0.011341
        CHANNELS 3 Zrotation Xrotation Yrotation
        End Site
        {
          OFFSET -0.29 12.7742 2.51395
        }
      }
      JOINT LeftShoulder1
      {
        OFFSET 8.99 -0.362252 -0.22
        CHANNELS 3 Zrotation Xrotation Yrotation
        JOINT LeftArm
        {
          OFFSET 10.2827 -0.00338 0.322123
          CHANNELS 3 Zrotation Xrotation Yrotation
          JOINT LeftForeArm
          {
            OFFSET 32.7669 0.099144 -1.42434
            CHANNELS 3 Zrotation Xrotation Yrotation
            JOINT LeftHand
            {
              OFFSET 27.5643 0.085362 1.02216
              CHANNELS 3 Zrotation Xrotation Yrotation
              End Site
              {
                OFFSET 16.7443 -0.6 1.50291
              }
            }
          }
        }
      }
      JOINT RightShoulder
      {
        OFFSET -8.99 -0.362252 -0.22
        CHANNELS 3 Zrotation Xrotation Yrotation
        JOINT RightArm
        {
          OFFSET -10.2827 -0.00338 0.322123
          CHANNELS 3 Zrotation Xrotation Yrotation
          JOINT RightForeArm
          {
            OFFSET -32.8971 0.099144 -1.42434
            CHANNELS 3 Zrotation Xrotation Yrotation
            JOINT RightHand
            {
              OFFSET -27.4921 0.085362 1.02216
              CHANNELS 3 Zrotation Xrotation Yrotation
              End Site
              {
                OFFSET -16.6312 -0.6 1.50291
              }
            }
          }
        }
      }
    }
  }
  JOINT LeftUpLeg
  {
    OFFSET 8.9458 -8.66707 0.101652
    CHANNELS 3 Zrotation Xrotation Yrotation
    JOINT LeftLeg
    {
      OFFSET 0 -44.4227 1.3727
      CHANNELS 3 Zrotation Xrotation Yrotation
      JOINT LeftFoot
      {
        OFFSET -0.253549 -42.0924 -1.46059
        CHANNELS 3 Zrotation Xrotation Yrotation
        JOINT LeftToes
        {
          OFFSET -0.04 -4.41509 8.4991
          CHANNELS 3 Zrotation Xrotation Yrotation
          End Site
          {
            OFFSET 0.08 -0.047448 9.77979
          }
        }
      }
    }
  }
}
MOTION
Frames:	11
Frame Time:	0.0166667
10.637 99.423 -45.8066 -1.44806 3.11958 175.717 -1.24492 -3.91788 -1.04634 -7.21267 56.0066 6.65992 3.70595 -0.102612 -0.257731 -0.416676 -0.662425 0.413392 4.56159 2.78015 -1.82059 -8.96326 6.87726 1.06282 18.682 -9.54152 -7.91697 0 0 -0 -61.2919 -63.2964 19.9755 -2.397 12.5015 5.44617 0.368626 9.92461 4.83566 -6.30302 0.223187 4.10601 105.7 -5.58766 45.1113 11.5455 14.3478 15.2349 -0.368133 9.89824 4.83781 -4.73652 -11.6754 -1.25582 -2.13011 12.6723 36.5569 -27.9579 -7.2501 -0.840232 -21.6186 9.92665 8.64259 
10.3487 99.3849 -47.4033 -2.13931 3.20194 175.821 -1.61381 -6.15264 -0.708904 -9.13239 59.703 8.54593 3.5696 2.2871 -0.307743 0.147868 2.44642 -0.384558 3.85939 2.87761 -1.88115 -9.79473 7.13739 1.17293 18.7372 -9.13511 -8.03614 -4.96962e-016 -1.59028e-015 -2.38542e-015 -65.4059 -62.298 15.0959 -2.37779 12.5047 5.44718 0.368626 9.92461 4.83566 -5.97235 0.232332 3.72632 105.707 -6.01742 44.0701 11.7179 14.1751 13.8006 -0.368133 9.89824 4.83781 -5.57272 -10.9179 -1.24331 -2.5122 13.2193 36.7881 -27.9481 -7.93021 -1.00224 -19.4887 9.74114 8.27554 
10.0676 99.382 -48.9484 -2.58008 3.2501 175.777 -1.56393 -8.48209 -0.0764719 -11.3923 63.0252 10.7209 3.1532 3.43039 -0.324597 -1.99784 1.07187 -3.43034 3.23609 2.95904 -1.88728 -10.2718 7.44613 1.25447 18.7019 -8.75023 -8.03953 -9.93923e-017 0 7.95139e-016 -69.611 -60.8546 10.0615 -2.54257 12.4967 5.50422 0.368626 9.92461 4.83566 -5.6045 0.242588 3.34322 105.549 -6.53024 43.088 11.9077 13.9897 12.2276 -0.368133 9.89824 4.83781 -6.08711 -10.125 -1.16798 -2.94879 13.6 37.0728 -27.9602 -8.56344 -1.15548 -17.8098 9.58916 7.98768 
9.78733 99.5093 -50.4651 -2.52849 3.28244 175.55 -0.842846 -10.7985 0.94042 -13.3881 65.6442 11.8192 2.77468 2.9513 -0.294282 -3.89533 0.514101 -5.95853 2.95564 2.98984 -1.85503 -10.2099 7.84665 1.29247 18.5114 -8.80165 -7.9487 3.97569e-016 0 -0 -73.7783 -58.9958 4.88605 -2.92083 12.4804 5.65492 0.368626 9.92461 4.83566 -5.36092 0.246801 3.0573 105.39 -7.0846 42.2838 11.9524 13.7603 10.3882 -0.368133 9.89824 4.83781 -6.05881 -9.08445 -1.21899 -3.42538 13.4861 37.3507 -28.1553 -9.19346 -1.32141 -17.8895 9.47515 7.87932 
9.51824 99.6868 -51.9499 -2.23872 3.25433 175.276 0.243752 -13.144 2.15039 -14.9317 67.6167 12.3018 2.36112 1.72502 -0.24781 -6.15739 -0.530906 -8.53329 2.83499 3.00354 -1.79538 -9.87172 8.25768 1.30246 18.2651 -9.0239 -7.85413 -5.96354e-016 0 -0 -77.8699 -56.8333 -0.39595 -3.27232 12.4726 5.7949 0.368626 9.92461 4.83566 -5.10973 0.249817 2.78077 105.192 -7.84031 41.4957 11.8682 13.5169 8.482 -0.368133 9.89824 4.83781 -5.78541 -7.98577 -1.33472 -3.86895 13.1252 37.6175 -28.3477 -9.79538 -1.48292 -18.5931 9.38658 7.84665 
9.27528 99.8744 -53.4062 -1.87064 3.09349 175.074 1.47541 -15.5758 3.47288 -15.8195 68.8542 12.3644 1.90448 0.572155 -0.213412 -8.12899 -1.4111 -10.7096 2.82303 3.02475 -1.7316 -9.46642 8.57114 1.29245 18.0322 -9.29056 -7.87069 1.2921e-015 0 7.95139e-016 -82.0522 -54.5871 -6.04183 -3.29219 12.4997 5.80258 0.368626 9.92461 4.83566 -4.74783 0.257455 2.4895 104.945 -8.9887 40.5984 11.6269 13.2867 6.68029 -0.368133 9.89824 4.83781 -5.46843 -6.94919 -1.54066 -4.22263 12.5818 37.8818 -28.3497 -10.3657 -1.62952 -19.2105 9.34264 7.84906 
9.03855 100.048 -54.837 -1.4687 2.90193 174.956 2.73247 -17.9422 4.65611 -16.1708 69.3753 12.0038 1.52577 -0.719397 -0.185435 -10.2659 -2.70691 -12.7591 2.78812 3.04555 -1.64285 -8.97001 8.91062 1.26986 17.8358 -9.59897 -7.94823 9.93923e-017 0 -0 -85.9646 -51.9149 -11.5335 -3.20421 12.5357 5.76726 0.368626 9.92461 4.83566 -4.34994 0.259643 2.09315 104.675 -10.4421 39.6319 11.2274 13.0721 4.93498 -0.368133 9.89824 4.83781 -5.17546 -5.9702 -1.76465 -4.43714 12.07 38.0574 -28.3266 -10.8841 -1.76233 -19.7787 9.25131 7.79811 
8.78456 100.155 -56.2457 -1.1463 2.77042 174.993 3.69631 -20.1296 5.35694 -16.3037 69.1793 11.5516 1.4221 -2.06616 -0.169404 -13.1129 -5.15071 -14.8744 2.53373 3.06849 -1.50556 -8.41688 9.3955 1.24609 17.7467 -9.89468 -8.0732 -1.98785e-016 -1.59028e-015 -1.59028e-015 -89.3538 -48.5812 -16.5074 -3.15065 12.5625 5.74573 0.368626 9.92461 4.83566 -3.97662 0.246956 1.46601 104.423 -12.1805 38.5757 10.6612 12.8828 3.25522 -0.368133 9.89824 4.83781 -5.09725 -5.12336 -1.89306 -4.40102 11.9245 37.9716 -28.3671 -11.301 -1.86917 -20.1105 8.99256 7.55694 
8.53896 100.241 -57.6354 -0.849317 2.65983 175.12 4.47748 -22.1268 5.6813 -15.9836 68.2167 10.7529 1.35466 -3.53423 -0.159928 -16.0156 -7.56775 -16.9181 2.20332 3.08675 -1.35112 -7.84177 9.93042 1.2176 17.6911 -10.2064 -8.2503 -1.98785e-016 0 7.95139e-016 -92.0998 -44.8543 -20.8899 -3.07119 12.5823 5.71396 0.368626 9.92461 4.83566 -3.56849 0.223171 0.690187 104.131 -14.1894 37.4853 9.92843 12.7237 1.63926 -0.368133 9.89824 4.83781 -5.08836 -4.29146 -2.07826 -4.26582 11.8292 37.8749 -28.5122 -11.7005 -1.97918 -20.1756 8.66815 7.23191 
8.3195 100.338 -59.011 -0.578565 2.54063 175.272 5.086 -23.9135 5.58821 -15.2681 66.4348 9.69822 1.07634 -5.32881 -0.153089 -18.0487 -8.65454 -18.72 1.87302 3.09341 -1.2063 -7.31001 10.4182 1.18375 17.6 -10.5295 -8.45571 -1.19271e-015 3.18055e-015 -7.95139e-016 -94.2417 -41.0017 -24.6483 -2.89293 12.5925 5.64295 0.368626 9.92461 4.83566 -3.07803 0.189841 -0.200038 103.776 -16.4489 36.4135 9.00176 12.6007 0.0388219 -0.368133 9.89824 4.83781 -5.0715 -3.37633 -2.49336 -4.16804 11.5364 37.8438 -29.0178 -12.3761 -2.1912 -20.4801 8.5113 7.04414 
8.12648 100.428 -60.3704 -0.285353 2.4749 175.521 5.5372 -25.392 5.16201 -14.0603 63.8192 8.14106 0.81039 -6.94906 -0.150094 -19.9254 -9.70793 -20.3621 1.54877 3.0914 -1.06129 -6.76464 10.9836 1.1471 17.5285 -10.9095 -8.76186 2.98177e-016 1.59028e-015 -1.59028e-015 -95.7443 -36.8734 -27.8765 -2.79598 12.5889 5.6044 0.368626 9.92461 4.83566 -2.53088 0.144298 -1.18681 103.318 -18.9322 35.34 7.95663 12.5192 -1.39762 -0.368133 9.89824 4.83781 -4.99536 -2.39621 -2.96047 -4.02731 11.1867 38.2362 -29.3345 -12.6491 -2.28553 -19.2207 8.00898 6.51078 
